<?xml version="1.0" encoding="utf-8"?>
<!-- Generator: Adobe Illustrator 24.2.3, SVG Export Plug-In . SVG Version: 6.00 Build 0)  -->
<svg version="1.1" id="Layer_1" xmlns="http://www.w3.org/2000/svg" xmlns:xlink="http://www.w3.org/1999/xlink" x="0px" y="0px"
	 viewBox="0 0 681.55 84.38" style="enable-background:new 0 0 681.55 84.38;" xml:space="preserve">
<g>
	<path d="M39.12,52.38c-2.76-1.66-6.13-3.04-10.1-4.15c-3.98-1.11-7.93-2.42-11.87-3.92c-3.94-1.51-7.3-3.99-10.07-7.45
		C4.3,33.39,2.91,29.01,2.91,23.7c0-6.55,2.65-12.13,7.96-16.76C16.18,2.31,23.07,0,31.56,0c3.35,0,6.58,0.39,9.7,1.16
		c3.12,0.77,5.68,1.67,7.68,2.71c2,1.03,3.75,2.09,5.25,3.16c1.5,1.07,2.58,2,3.22,2.79l1.03,1.13l-10.5,11.01
		c-0.46-0.53-1.09-1.18-1.91-1.95c-0.82-0.77-2.54-1.8-5.16-3.08c-2.63-1.28-5.33-1.92-8.1-1.92c-3.35,0-6.04,0.85-8.07,2.54
		c-2.04,1.69-3.05,3.74-3.05,6.15c0,2.71,1.38,4.88,4.14,6.52c2.76,1.64,6.11,3.02,10.04,4.15s7.89,2.45,11.87,3.95
		c3.98,1.51,7.35,3.99,10.13,7.45c2.78,3.46,4.17,7.85,4.17,13.15c0,7.49-2.75,13.6-8.25,18.34c-5.5,4.74-13.08,7.11-22.74,7.11
		c-3.8,0-7.49-0.46-11.04-1.38c-3.56-0.92-6.49-2.02-8.79-3.3c-2.3-1.28-4.33-2.58-6.08-3.89s-3.01-2.43-3.77-3.33L0,71.06
		l10.56-10.39c0.53,0.6,1.28,1.38,2.25,2.34c0.97,0.96,3.13,2.25,6.48,3.87s6.85,2.43,10.5,2.43c4.22,0,7.52-0.98,9.9-2.93
		c2.38-1.96,3.57-4.44,3.57-7.45C43.26,56.21,41.88,54.03,39.12,52.38z"/>
	<path d="M222.88,0.81c8.5,0,15.55,2.68,21.14,8.03c5.6,5.36,8.39,11.99,8.39,19.89s-2.79,14.54-8.36,19.89
		c-5.58,5.36-12.63,8.03-21.17,8.03h-17.07v27.32h-17.77V0.81L222.88,0.81z M205.81,16.88V40.6h16.5c3.54,0,6.49-1.14,8.85-3.42
		c2.36-2.28,3.55-5.08,3.55-8.41c0-3.33-1.18-6.14-3.55-8.44c-2.37-2.3-5.32-3.45-8.85-3.45H205.81z"/>
	<path d="M312.77,0.81c8.5,0,15.54,2.68,21.14,8.03c5.6,5.36,8.39,11.99,8.39,19.89s-2.79,14.54-8.36,19.89
		c-5.58,5.36-12.63,8.03-21.17,8.03h-17.07v27.32h-17.77V0.81L312.77,0.81z M295.69,16.88V40.6h16.5c3.54,0,6.49-1.14,8.85-3.42
		c2.36-2.28,3.55-5.08,3.55-8.41c0-3.33-1.18-6.14-3.55-8.44c-2.37-2.3-5.32-3.45-8.85-3.45H295.69z"/>
	<path d="M575.66,52.82c2.01-1.14,3.86-2.53,5.58-4.19c0.18-0.17,0.34-0.34,0.51-0.5l0.06-0.06c5.19-5.25,7.79-11.7,7.79-19.32
		c0-7.91-2.8-14.54-8.4-19.89c-5.59-5.36-12.64-8.04-21.14-8.04h-34.84v83.18H543V56.67h16.33l14.94,27.32h18.92L575.66,52.82z
		 M543,40.6V16.88h16.49c3.54,0,6.49,1.15,8.86,3.45c0.58,0.56,1.08,1.15,1.52,1.77c0.77,1.1,1.32,2.29,1.65,3.59
		c0.25,0.97,0.38,2,0.38,3.08c0,2.13-0.48,4.04-1.46,5.73c0,0.02-0.01,0.03-0.02,0.04c-0.54,0.94-1.22,1.82-2.06,2.64
		c-2.37,2.28-5.32,3.42-8.86,3.42H543z"/>
	<path d="M473.51,0.81h17.77v83.17h-17.77V0.81z"/>
	<polygon points="421.74,0.94 421.74,32.44 421.74,32.44 421.74,33.07 386.36,33.07 386.37,0.93 368.6,0.93 368.6,84.1 386.37,84.1 
		386.37,48.78 421.74,48.78 421.74,84.11 439.51,84.11 439.51,0.94 	"/>
	<polygon points="637.26,67.97 637.26,57.48 637.26,48.77 638.86,48.77 670.88,48.77 670.88,32.93 637.26,32.93 637.26,26.47 
		637.26,16.88 680.35,16.88 680.35,0.81 619.49,0.81 619.49,83.99 681.55,83.99 681.55,67.97 	"/>
	<path d="M131.31,0.82h-18.49l-31.9,83.2h18.55l6.96-19.61h31.27l6.96,19.61h18.55L131.31,0.82z M122.1,21.65l9.77,27.12h-19.59
		L122.1,21.65z"/>
</g>
</svg>
